# xmcd CD database file
#
# Track frame offsets:
#	150
#	16561
#	34223
#	53520
#	72346
#	89378
#	108885
#	126807
#	144062
#	160606
#	188077
#	205248
#	224508
#
# Disc length: 3232 seconds
#
# Revision: 0
# Processed by: cddbd v1.5PL3 Copyright (c) Steve Scherf et al.
# Submitted via: CDex 1.51
#
DISCID=a50c9e0d
DTITLE=HOME - Nothing Will Be Like Yesterday
DYEAR=1900
DGENRE=Rhythmic Soul
TTITLE0=Different Tears
TTITLE1=The Old Man
TTITLE2=It Doesnt Really Matter Tonight
TTITLE3=Nothing Will Be Like Yesterday
TTITLE4=Warum
TTITLE5=The Last Day
TTITLE6=Pain
TTITLE7=Shinning Eyes
TTITLE8=Dream Or Reality
TTITLE9=For My Love
TTITLE10=Lost In Space
TTITLE11=Das Licht Und Die Dunkelheit
TTITLE12=Angels  Fuer H.
EXTD=
EXTT0=
EXTT1=
EXTT2=
EXTT3=
EXTT4=
EXTT5=
EXTT6=
EXTT7=
EXTT8=
EXTT9=
EXTT10=
EXTT11=
EXTT12=
PLAYORDER=
